<svg xmlns="http://www.w3.org/2000/svg" viewBox="0 0 150 150"><defs><style>.cls-1{fill:#444;}.cls-2{fill:#007aff;}</style></defs><g id="Layer_3" data-name="Layer 3"><path class="cls-1" d="M125.94,9H24a21.72,21.72,0,0,0-21.7,21.7V89A21.72,21.72,0,0,0,24,110.7H35.93v26.5a3.77,3.77,0,0,0,2.21,3.42,3.72,3.72,0,0,0,1.56.34,3.8,3.8,0,0,0,2.47-.92L75.9,110.7h50A21.76,21.76,0,0,0,147.68,89V30.79A21.77,21.77,0,0,0,125.94,9ZM140.15,89a14.22,14.22,0,0,1-14.21,14.21H74.49a3.77,3.77,0,0,0-2.47.93L43.47,128.93v-22a3.77,3.77,0,0,0-3.77-3.77H24A14.18,14.18,0,0,1,9.85,89V30.74A14.18,14.18,0,0,1,24,16.57H125.94a14.23,14.23,0,0,1,14.21,14.22Z"/><path class="cls-2" d="M75.05,49.63A11.74,11.74,0,1,0,86.79,61.37,11.75,11.75,0,0,0,75.05,49.63Zm0,15.94a4.21,4.21,0,1,1,4.2-4.2A4.21,4.21,0,0,1,75.05,65.57Z"/><path class="cls-2" d="M108.26,49.63A11.74,11.74,0,1,0,120,61.37,11.74,11.74,0,0,0,108.26,49.63Zm0,15.94a4.21,4.21,0,1,1,4.21-4.2A4.21,4.21,0,0,1,108.26,65.57Z"/><path class="cls-2" d="M41.84,49.63A11.74,11.74,0,1,0,53.57,61.37,11.75,11.75,0,0,0,41.84,49.63Zm0,15.94a4.21,4.21,0,1,1,4.2-4.2A4.21,4.21,0,0,1,41.84,65.57Z"/></g></svg>